<svg id="Layer_1" data-name="Layer 1" xmlns="http://www.w3.org/2000/svg" viewBox="0 0 800 800"><defs><style>.cls-1{fill:#293924;fill-rule:evenodd;}</style></defs><path class="cls-1" d="M198.57,241.72a40.29,40.29,0,1,0,0,80.57H601.43a40.29,40.29,0,1,0,0-80.57Zm0,120.86a40.29,40.29,0,1,0,0,80.57H440.29a40.29,40.29,0,0,0,0-80.57ZM195.92,0H604.08c35.72,0,66.49,0,91.13,3.31,26.41,3.55,51.72,11.56,72.25,32.09s28.54,45.85,32.1,72.25c3.31,24.65,3.31,55.42,3.3,91.13v247c0,35.72,0,66.49-3.3,91.13-3.56,26.41-11.56,51.72-32.1,72.25s-45.84,28.54-72.25,32.1c-24.64,3.31-55.41,3.31-91.13,3.3h-81L439.64,778c-18.31,29.29-61,29.29-79.28,0L277,644.58h-81c-35.72,0-66.49,0-91.13-3.3-26.41-3.56-51.72-11.56-72.26-32.1S4,563.34.45,536.93c-3.32-24.64-3.32-55.41-3.31-91.13v-247c0-35.71,0-66.48,3.31-91.13C4,81.25,12,55.93,32.53,35.4S78.38,6.86,104.79,3.31C129.43,0,160.2,0,195.92,0Z"/></svg>