<svg id="Capa_1" data-name="Capa 1" xmlns="http://www.w3.org/2000/svg" viewBox="0 0 800 800"><defs><style>.cls-1{fill:#293924;}</style></defs><g id="Layer_5" data-name="Layer 5"><path class="cls-1" d="M733.57,281.3H704.7c-7.89,0-8.16-5.17-8.43-7.75C681.14,131,560.13,19.48,413.58,19.48H386.42C241,19.48,120.66,129.3,104.08,270.39c-.42,3.62-.64,10.91-7.29,10.91H66.43C46.51,281.3,0,302.26,0,408.14V463.7c0,78.53,46.51,96.64,66.43,96.64H163a36.33,36.33,0,0,0,36.23-36.22V317.52A36.33,36.33,0,0,0,163,281.3s-4.55-.4-3.39-8.5C175.56,161.29,270.71,74.88,386.42,74.88h27.16c114.92,0,210.33,85.14,226.48,195.65.52,3.56,2.46,10.77-3.07,10.77a36.33,36.33,0,0,0-36.23,36.22v206.6A36.33,36.33,0,0,0,637,560.34h18.13c5,0,4.14,4,3.7,6C644,633,610.87,708.72,536.41,708.72H481.26c-5.63,0-7-4.12-8.09-6.07A52.59,52.59,0,0,0,427,675.25H376.17a52.64,52.64,0,1,0,0,105.27H427a52.61,52.61,0,0,0,46.54-28.06c.77-1.46,1.41-4.49,7.36-4.49h55.52C587,748,654.67,722.84,689.89,603.1c3.75-12.76,6.8-25.47,9.28-37.73.34-1.68.55-5,5.81-5h28.59c19.92,0,66.43-18.11,66.43-96.63V408.14C800,303.77,753.49,281.3,733.57,281.3Z"/></g></svg>