<svg version="1.2" xmlns="http://www.w3.org/2000/svg" viewBox="0 0 512 512" width="25" height="25">
	<title>fax-free-5-svgrepo-com-svg</title>
	<style>
		.s0 { fill: #000000 } 
	</style>
	<filter id="f0">
		<feFlood flood-color="#ffffff" flood-opacity="1" />
		<feBlend mode="normal" in2="SourceGraphic"/>
		<feComposite in2="SourceAlpha" operator="in" />
	</filter>
	<g id="Layer" filter="url(#f0)">
		<path id="Layer" fill-rule="evenodd" class="s0" d="m481.8 242.3v184.5c0 47-38.2 85.2-85.2 85.2h-281.2c-47 0-85.2-38.2-85.2-85.2v-221.3c0-20.3 8-38.8 21.2-52.2 13.2-13.4 31.6-21.8 52-21.8h16.6c17.9 0 34.2 6.6 46.9 17.2v-148.7h184.1l78.7 78.7v85c30.6 13 52.1 43.3 52.1 78.6zm-291.1-85.3h205.9q4.7 0 9.3 0.6v-69.1l-0.7-0.7h-62.9v-62.8l-1.2-1.3h-150.4zm-134.4 168.5c0 26 21.1 47.1 47.1 47.1h16.6c26 0 47.1-21.1 47.1-47.1v-119.9c0-26.1-21.1-47.1-47.1-47.1h-16.6c-26 0-47.1 21-47.1 47.1zm398.6-83.2c0-32.2-26.1-58.4-58.3-58.4h-205.8v141.6c0 39-31.8 70.8-70.8 70.8h-16.6c-17.7 0-33.9-6.6-46.3-17.3v47.8c0 32.2 26.1 58.3 58.3 58.3h281.2c32.2 0 58.3-26.1 58.3-58.3z"/>
		<path id="Layer" class="s0" d="m237 386.9c-8.5 0-15.4 6.9-15.4 15.4 0 8.5 6.9 15.4 15.4 15.4 8.5 0 15.4-6.9 15.4-15.4 0-8.5-6.9-15.4-15.4-15.4z"/>
		<path id="Layer" class="s0" d="m316.1 386.9c-8.5 0-15.4 6.9-15.4 15.4 0 8.5 6.9 15.4 15.4 15.4 8.5 0 15.4-6.9 15.4-15.4 0-8.5-6.9-15.4-15.4-15.4z"/>
		<path id="Layer" class="s0" d="m395.3 386.9c-8.5 0-15.4 6.9-15.4 15.4 0 8.5 6.9 15.4 15.4 15.4 8.5 0 15.4-6.9 15.4-15.4 0-8.5-6.9-15.4-15.4-15.4z"/>
		<path id="Layer" class="s0" d="m237 336.8c-8.5 0-15.4 6.9-15.4 15.4 0 8.5 6.9 15.3 15.4 15.3 8.5 0 15.4-6.8 15.4-15.3 0-8.5-6.9-15.4-15.4-15.4z"/>
		<path id="Layer" class="s0" d="m316.1 336.8c-8.5 0-15.4 6.9-15.4 15.4 0 8.5 6.9 15.3 15.4 15.3 8.5 0 15.4-6.8 15.4-15.3 0-8.5-6.9-15.4-15.4-15.4z"/>
		<path id="Layer" class="s0" d="m395.3 336.8c-8.5 0-15.4 6.9-15.4 15.4 0 8.5 6.9 15.3 15.4 15.3 8.5 0 15.4-6.8 15.4-15.3 0-8.5-6.9-15.4-15.4-15.4z"/>
		<path id="Layer" class="s0" d="m237 286.6c-8.5 0-15.4 6.9-15.4 15.4 0 8.5 6.9 15.4 15.4 15.4 8.5 0 15.4-6.9 15.4-15.4 0-8.5-6.9-15.4-15.4-15.4z"/>
		<path id="Layer" class="s0" d="m316.1 286.6c-8.5 0-15.4 6.9-15.4 15.4 0 8.5 6.9 15.4 15.4 15.4 8.5 0 15.4-6.9 15.4-15.4 0-8.5-6.9-15.4-15.4-15.4z"/>
		<path id="Layer" class="s0" d="m395.3 286.6c-8.5 0-15.4 6.9-15.4 15.4 0 8.5 6.9 15.4 15.4 15.4 8.5 0 15.4-6.9 15.4-15.4 0-8.5-6.9-15.4-15.4-15.4z"/>
		<path id="Layer" class="s0" d="m396.1 231.7h-158.3c-8.8 0-15.9 7.1-15.9 15.8 0 8.8 7.1 15.9 15.9 15.9h158.3c8.7 0 15.8-7.1 15.8-15.9 0-8.7-7.1-15.8-15.8-15.8z"/>
	</g>
</svg>