<svg id="Layer_1" data-name="Layer 1" xmlns="http://www.w3.org/2000/svg" viewBox="0 0 800 800"><defs><style>.cls-1,.cls-3{fill:#158d2c;}.cls-1,.cls-2{fill-rule:evenodd;}.cls-2{fill:#002d71;}</style></defs><g id="Layer_1-2" data-name="Layer 1-2"><path class="cls-1" d="M409.74,232.44H346.21V568.28a55.05,55.05,0,0,1-52.93,52.94,54,54,0,0,1-52.95-55c0-.15,0-.3,0-.45a49.61,49.61,0,0,1,0-5.72H176.81c0,60.88,52.2,110.43,116.47,110.43a114.77,114.77,0,0,0,116.46-102.6V232.44Z"/><path class="cls-2" d="M511.7,379.5l47.11,42.35L455.06,513.43,597.88,652.34H504.29l-94.55-91.79V469Z"/><path class="cls-3" d="M799.58,652.34H718.37V486.12a34.41,34.41,0,1,0-68.18-9.33,33.9,33.9,0,0,0,0,9.33V652.34H598l-29.12-28.48V487.92a143.76,143.76,0,0,1,33.57-97,103.08,103.08,0,0,1,82.26-39.28,105.23,105.23,0,0,1,89.15,45.95c17.36,23.61,26.15,57,26.15,99.31V652.34Z"/><path class="cls-1" d="M356.59,129.53c164.43,0,304.61,72.95,356.49,175-51.88-69-191.75-118.26-356.49-118.26S52,235.83,0,304.54C52,202.79,191.85,129.53,356.59,129.53Z"/></g></svg>